<?xml version="1.0" encoding="UTF-8" standalone="no"?>
<svg
   width="400"
   height="400"
   viewBox="0 0 105.83333 105.83334"
   version="1.1"
   id="svg926"
   inkscape:version="1.1.2 (1:1.1+202202050950+0a00cf5339)"
   sodipodi:docname="promote-blue2.svg"
   xmlns:inkscape="http://www.inkscape.org/namespaces/inkscape"
   xmlns:sodipodi="http://sodipodi.sourceforge.net/DTD/sodipodi-0.dtd"
   xmlns="http://www.w3.org/2000/svg"
   xmlns:svg="http://www.w3.org/2000/svg"
   xmlns:rdf="http://www.w3.org/1999/02/22-rdf-syntax-ns#"
   xmlns:cc="http://creativecommons.org/ns#"
   xmlns:dc="http://purl.org/dc/elements/1.1/">
  <defs
     id="defs920" />
  <sodipodi:namedview
     id="base"
     pagecolor="#ffffff"
     bordercolor="#666666"
     borderopacity="1.0"
     inkscape:pageopacity="0.0"
     inkscape:pageshadow="2"
     inkscape:zoom="1.7469907"
     inkscape:cx="242.41685"
     inkscape:cy="190.89969"
     inkscape:document-units="px"
     inkscape:current-layer="layer1"
     inkscape:document-rotation="0"
     showgrid="false"
     units="px"
     inkscape:window-width="1920"
     inkscape:window-height="1009"
     inkscape:window-x="1600"
     inkscape:window-y="34"
     inkscape:window-maximized="1"
     inkscape:pagecheckerboard="0" />
  <metadata
     id="metadata923">
    <rdf:RDF>
      <cc:Work
         rdf:about="">
        <dc:format>image/svg+xml</dc:format>
        <dc:type
           rdf:resource="http://purl.org/dc/dcmitype/StillImage" />
      </cc:Work>
    </rdf:RDF>
  </metadata>
  <g
     inkscape:label="Layer 1"
     inkscape:groupmode="layer"
     id="layer1">
    <path
       inkscape:export-ydpi="350"
       inkscape:export-xdpi="350"
       inkscape:export-filename="/home/lenovo/Dropbox/NHBG/graphics/Icon Graphics/original icons/#457f8cff - teal/promote_icon-teal.png"
       inkscape:connector-curvature="0"
       d="m 85.495261,44.404491 c -0.65967,0.307948 -1.10325,0.987927 -1.07403,1.763701 0.0391,1.034386 0.903,1.835705 1.93686,1.796829 l 14.937179,-0.56115 c 1.03445,-0.03914 1.83562,-0.902908 1.79672,-1.937278 -0.0391,-1.034395 -0.903,-1.836004 -1.93706,-1.797171 l -14.937079,0.561449 c -0.25898,0.0095 -0.50232,0.07133 -0.7222,0.173575 z m -3.9183,-6.306176 c -0.92743,0.460491 -1.30261,1.577549 -0.84241,2.504574 0.4603,0.927045 1.57762,1.30261 2.50466,0.842116 l 13.38673,-6.649964 c 0.92744,-0.460492 1.30261,-1.577568 0.84241,-2.50457 -0.4603,-0.927043 -1.57752,-1.302633 -2.50456,-0.842123 z m 6.7348,-18.459217 c -0.21497,0.113068 -0.41045,0.270822 -0.57463,0.470954 l -9.47157,11.563681 c -0.65575,0.800777 -0.53946,1.973469 0.2619,2.629377 0.80137,0.655946 1.97332,0.539458 2.62927,-0.261309 l 9.47146,-11.564029 c 0.65575,-0.80078 0.53946,-1.973318 -0.26094,-2.629189 -0.60103,-0.491959 -1.4106,-0.549423 -2.05472,-0.209522 z"
       style="display:inline;fill:#397bdc;fill-opacity:1;stroke:#397bdc;stroke-width:1.51283;stroke-miterlimit:4;stroke-dasharray:none;stroke-dashoffset:0;stroke-opacity:1"
       id="path8702"
       sodipodi:nodetypes="ccccccccccccccscccccccccc" />
    <path
       inkscape:export-ydpi="350"
       inkscape:export-xdpi="350"
       inkscape:export-filename="/home/lenovo/Dropbox/NHBG/graphics/Icon Graphics/original icons/#457f8cff - teal/promote_icon-teal.png"
       inkscape:connector-curvature="0"
       d="m 32.118851,78.986121 14.76743,-2.645351 c -0.27512,4.834903 -2.4857,8.401956 -5.63342,9.090256 -3.2813,0.701672 -6.91112,-1.859508 -9.13401,-6.444905 z m -2.03314,0.363978 c 2.40287,5.925862 7.17378,9.418116 11.58111,8.477237 4.22499,-0.926268 7.08941,-5.72072 7.05945,-11.81605 z"
       style="display:inline;fill:#397bdc;fill-opacity:1;stroke:#397bdc;stroke-width:1.51283;stroke-miterlimit:4;stroke-dasharray:none;stroke-dashoffset:0;stroke-opacity:1"
       id="path21272"
       sodipodi:nodetypes="cccccccc" />
    <path
       inkscape:export-ydpi="350"
       inkscape:export-xdpi="350"
       inkscape:export-filename="/home/lenovo/Dropbox/NHBG/graphics/Icon Graphics/original icons/#457f8cff - teal/promote_icon-teal.png"
       inkscape:connector-curvature="0"
       d="m 56.839291,18.284047 c -1.48468,0.737548 -2.20591,2.380087 -1.83172,3.923179 L 5.9056011,67.811721 c -0.28046,-0.415737 -1.07998,-0.452865 -1.85027,-0.07035 l -0.21991,0.109242 c -0.81016,0.402224 -1.27076,1.111085 -1.03338,1.58897 l 7.4373699,14.971879 c 0.23746,0.47788 1.08067,0.53887 1.89054,0.13665 l 0.21989,-0.10924 c 0.81016,-0.40227 1.27065,-1.11109 1.03327,-1.589 l -0.1632,-0.32847 65.79473,-11.785348 0.15148,0.30558 c 0.8561,1.724288 2.93428,2.423138 4.65858,1.566608 l 0.4691,-0.23278 c 1.7242,-0.856583 2.42267,-2.934487 1.56608,-4.658776 L 61.966371,19.617415 c -0.85609,-1.72428 -2.93427,-2.422814 -4.65848,-1.566283 l -0.46909,0.232777 z"
       style="display:inline;fill:#39bfdc;fill-opacity:1;stroke:#39bfdc;stroke-width:1.51283;stroke-miterlimit:4;stroke-dasharray:none;stroke-dashoffset:0;stroke-opacity:1"
       id="path27837"
       sodipodi:nodetypes="cccccccscccccccccccc" />
    <path
       inkscape:export-ydpi="350"
       inkscape:export-xdpi="350"
       inkscape:export-filename="/home/lenovo/Dropbox/NHBG/graphics/Icon Graphics/original icons/#457f8cff - teal/promote_icon-teal.png"
       inkscape:connector-curvature="0"
       d="m 56.839286,18.284046 c -1.484683,0.73755 -2.205912,2.38009 -1.831715,3.92318 l 24.007061,48.528828 0.15148,0.30558 c 0.8561,1.724291 2.93428,2.423139 4.65858,1.566606 l 0.4691,-0.232776 c 1.7242,-0.856585 2.42267,-2.934489 1.56608,-4.658778 l -23.89351,-48.09927 c -0.856089,-1.72428 -2.934264,-2.42281 -4.658474,-1.56628 l -0.469096,0.23277 z"
       style="display:inline;fill:#397bdc;fill-opacity:1;stroke:#397bdc;stroke-width:1.51283;stroke-miterlimit:4;stroke-dasharray:none;stroke-dashoffset:0;stroke-opacity:1"
       id="path8312"
       sodipodi:nodetypes="ccccccccccc" />
    <path
       inkscape:export-ydpi="350"
       inkscape:export-xdpi="350"
       inkscape:export-filename="/home/lenovo/Dropbox/NHBG/graphics/Icon Graphics/original icons/#457f8cff - teal/promote_icon-teal.png"
       inkscape:connector-curvature="0"
       d="m 5.9056011,67.811721 c -0.280466,-0.415737 -1.079985,-0.452865 -1.850274,-0.07035 l -0.219911,0.109242 c -0.810163,0.402224 -1.270754,1.111085 -1.033377,1.58897 l 7.4373679,14.971882 c 0.237465,0.47788 1.08067,0.538869 1.890541,0.136649 l 0.219889,-0.10924 c 0.81016,-0.402269 1.270654,-1.111089 1.033274,-1.589 l -0.163207,-0.328469 z"
       style="display:inline;fill:#397bdc;fill-opacity:1;stroke:#397bdc;stroke-width:1.51283;stroke-miterlimit:4;stroke-dasharray:none;stroke-dashoffset:0;stroke-opacity:1"
       id="path14655"
       sodipodi:nodetypes="cccccccccc" />
  </g>
</svg>
